<svg xmlns="http://www.w3.org/2000/svg" width="119" height="107" viewBox="0 0 119 107">
    <g fill="none" fill-rule="evenodd">
        <path fill="#F1F2F2" d="M116.544 53.03C116.544 23.742 92.802 0 63.514 0S10.483 23.742 10.483 53.03s23.743 53.03 53.031 53.03 53.03-23.742 53.03-53.03"/>
        <path stroke="#000" stroke-linecap="round" stroke-linejoin="round" stroke-width="3" d="M19.749 59.406v-6.375c0-24.313 19.709-44.019 44.02-44.019 24.313 0 44.022 19.706 44.022 44.02v6.374"/>
        <path fill="#36DAFF" d="M63.772 2.098c-17.152 0-32.3 8.738-41.23 21.996l9.601 6C39.065 20.028 50.659 13.41 63.772 13.41c13.113 0 24.706 6.618 31.626 16.682L105 24.094C96.069 10.836 80.922 2.098 63.772 2.098"/>
        <path fill="#36DAFF" d="M63.772 2.098c-17.152 0-32.3 8.738-41.23 21.996l9.601 6C39.065 20.028 50.659 13.41 63.772 13.41c13.113 0 24.706 6.618 31.626 16.682L105 24.094C96.069 10.836 80.922 2.098 63.772 2.098"/>
        <path fill="#E3ECF0" d="M63.772 2.098c-17.152 0-32.3 8.738-41.23 21.996l9.601 6C39.065 20.028 50.659 13.41 63.772 13.41c13.113 0 24.706 6.618 31.626 16.682L105 24.094C96.069 10.836 80.922 2.098 63.772 2.098"/>
        <path stroke="#000" stroke-linecap="round" stroke-linejoin="round" stroke-width="3" d="M63.772 2.098c-17.152 0-32.3 8.738-41.23 21.996l9.601 6C39.065 20.028 50.659 13.41 63.772 13.41c13.113 0 24.706 6.618 31.626 16.682L105 24.094C96.069 10.836 80.922 2.098 63.772 2.098z"/>
        <path fill="#C3CCCF" d="M102.646 57.59c7.66 0 13.882 6.206 13.882 13.868 0 7.676-6.222 13.88-13.882 13.88V57.592z"/>
        <path fill="#909194" d="M102.646 57.59V86.47c0 .867-.356 1.64-.93 2.214a3.068 3.068 0 0 1-2.213.912 3.13 3.13 0 0 1-3.141-3.125V56.46c0-.866.356-1.655.93-2.212a3.126 3.126 0 0 1 2.21-.913 3.13 3.13 0 0 1 3.144 3.125v1.13zM31.175 56.46v30.01a3.13 3.13 0 0 1-3.142 3.125 3.064 3.064 0 0 1-2.212-.912 3.17 3.17 0 0 1-.915-2.213V56.46a3.117 3.117 0 0 1 3.127-3.125c.868 0 1.657.355 2.213.913.573.557.93 1.346.93 2.212"/>
        <path fill="#C3CCCF" d="M24.907 57.59V85.34c-7.676 0-13.882-6.205-13.882-13.881 0-7.662 6.206-13.867 13.882-13.867"/>
        <path stroke="#000" stroke-linecap="round" stroke-linejoin="round" stroke-width="3" d="M24.907 57.59v-1.13a3.117 3.117 0 0 1 3.127-3.125 3.13 3.13 0 0 1 2.213.913c.572.557.929 1.346.929 2.212v30.01a3.13 3.13 0 0 1-3.142 3.125 3.068 3.068 0 0 1-2.213-.912 3.168 3.168 0 0 1-.914-2.213v-1.131"/>
        <path stroke="#000" stroke-linecap="round" stroke-linejoin="round" stroke-width="3" d="M24.907 57.59c-7.676 0-13.882 6.206-13.882 13.868 0 7.676 6.206 13.88 13.882 13.88V57.592zM102.646 57.59v-1.13a3.13 3.13 0 0 0-3.143-3.125c-.866 0-1.655.355-2.211.913a3.078 3.078 0 0 0-.93 2.212v30.01a3.13 3.13 0 0 0 3.14 3.125c.868 0 1.659-.34 2.215-.912a3.114 3.114 0 0 0 .929-2.213v-1.131M102.646 57.59c7.66 0 13.882 6.206 13.882 13.868 0 7.676-6.222 13.88-13.882 13.88V57.592z"/>
        <path fill="#E3ECF0" d="M72.009 78.82H57.544c-7.605 0-14.286-3.993-18.074-9.989 1.359 5.882 5.48 10.72 10.918 13.077l-3.936 18.09a1.396 1.396 0 0 0 2.579.806l8.936-17.356h12.66c8.04 0 14.913-5.049 17.627-12.138-3.921 4.591-9.745 7.51-16.245 7.51"/>
        <path fill="#FFF" d="M57.544 78.82h14.465c6.5 0 12.324-2.919 16.245-7.51a18.823 18.823 0 0 0 1.093-9.108c-1.188-9.51-9.583-16.48-19.168-16.48H58.312c-9.591 0-18.004 6.973-19.177 16.493a18.984 18.984 0 0 0 .335 6.616c3.787 5.996 10.469 9.988 18.074 9.988"/>
        <path stroke="#000" stroke-linecap="round" stroke-linejoin="round" stroke-width="3" d="M39.175 61.9c1.307-9.375 9.637-16.179 19.102-16.179H70.19c9.818 0 18.33 7.325 19.226 17.102 1.023 11.19-7.796 20.625-18.788 20.625h-12.66l-8.938 17.356a1.395 1.395 0 0 1-2.578-.806l3.935-18.09C42.927 78.673 37.94 70.763 39.175 61.9z"/>
        <path fill="#5C7180" d="M72.802 65.716a2.203 2.203 0 0 1 2.682-2.677 2.183 2.183 0 0 1 1.58 1.587 2.203 2.203 0 0 1-2.678 2.674 2.182 2.182 0 0 1-1.584-1.584M62.11 65.712a2.203 2.203 0 0 1 2.68-2.674 2.183 2.183 0 0 1 1.583 1.584 2.203 2.203 0 0 1-2.682 2.676 2.182 2.182 0 0 1-1.58-1.586M51.421 65.713a2.204 2.204 0 0 1 2.678-2.676 2.183 2.183 0 0 1 1.584 1.584 2.203 2.203 0 0 1-2.68 2.678 2.183 2.183 0 0 1-1.582-1.586"/>
        <path stroke="#231F20" stroke-linecap="round" stroke-linejoin="round" stroke-width="3" d="M1.5 45.49h6.762M4.88 42.134v6.71"/>
        <path fill="#231F20" d="M11.982 51.91a1.73 1.73 0 1 0-3.458-.003 1.73 1.73 0 0 0 3.459.002M72.797 94.372a2.536 2.536 0 0 0-2.876-2.146 2.541 2.541 0 0 0-2.146 2.877 2.539 2.539 0 0 0 2.877 2.145 2.535 2.535 0 0 0 2.145-2.876M76.263 99.362a1.163 1.163 0 1 0-2.302.336 1.163 1.163 0 0 0 2.302-.336"/>
    </g>
</svg>
