<?xml version="1.0" encoding="utf-8"?>
<!-- Generator: Adobe Illustrator 21.0.0, SVG Export Plug-In . SVG Version: 6.00 Build 0)  -->
<svg version="1.1" id="Layer_1" xmlns="http://www.w3.org/2000/svg" xmlns:xlink="http://www.w3.org/1999/xlink" x="0px" y="0px"
	 viewBox="0 0 48 48" style="enable-background:new 0 0 48 48;" xml:space="preserve">
<style type="text/css">
	.st0{fill:none;stroke:#C21B3D;stroke-width:3;stroke-linecap:round;stroke-linejoin:round;stroke-miterlimit:10;}
</style>
<g transform="translate(0.5, 0.5)">
	<path class="st0" d="M12.5,42.4c1.3-0.9,2.2-3.3,2.2-3.3s1.1-0.8,1.4-1.7s0-2.3,0-2.3s1-2.8,0.5-3.6c-0.5-0.8-2.4-1.3-2.4-1.3
		s-0.8-1.5-2.4-1.8c-1.1-0.1-2.2-0.9-2.2-2.4s1.5-4,1.5-4s1.6-0.8,1.8-1.3s0.3-1.9,0.3-1.9s1.5-2.7,0.7-4.2
		c-0.3-0.5-1.5-0.9-1.5-0.9L10.8,11"/>
	<path class="st0" d="M39.8,38.3c-1.9-0.9-5.3-1.7-5.3-1.7s-2.5-2.7-4.1-2.5c-1.6,0.2-3.3,2-3.3,2s0.1,3.4-0.4,3.5
		c-0.5,0.2-1.9-0.7-2.7-0.1s-0.4,2.6-0.4,2.6s-1.9,0.6-2.1,1.2s0.7,2,0.8,2.6"/>
	<path class="st0" d="M26.3,6.1C25.5,6.1,24.8,6,24,6C13,6,4,15,4,26s9,20,20,20s20-9,20-20c0-1.4-0.1-2.7-0.4-4"/>
	<circle class="st0" cx="34" cy="11" r="3"/>
	<path class="st0" d="M43,10.8C43,17,34,25,34,25s-9-8-9-14.2C25,5.2,29.7,2,34,2S43,5.2,43,10.8z"/>
</g>
</svg>
