<svg xmlns="http://www.w3.org/2000/svg" width="32" height="32" viewBox="0 0 32 32">
    <g fill="none" fill-rule="evenodd">
        <rect width="32" height="32" fill="#ED4166" rx="16"/>
        <g stroke="#FFF" stroke-linecap="round" stroke-linejoin="round" stroke-width="1.2" transform="translate(7 7)">
            <path d="M3.857 1.613c.568.42 1.2.762 1.618 1.462.365.611.995 2.51.252 3.47C4.887 7.632 2.455 8 2.455 9c0 .754 1.066 1.613 1.636 2.455.857 1.264.467 2.49 0 3.273-.243.405-.655.73-1.083.987M16.088 3.454C14.322 4.301 12.85 5.35 11.87 5.1c-1.111-.283-1.015-1.255-1.669-2.25-.49-.746-2.018-1.257-2.018-2.032 0-.303.03-.55.108-.79M14.739 9.74c.034 2.522-3.48 6.073-4.92 4.987-1.231-.927-.144-1.49-.807-4.988-.253-1.332 1.282-2.454 2.864-2.454 1.581 0 2.844 1.099 2.863 2.454z"/>
            <circle cx="9" cy="9" r="9"/>
        </g>
    </g>
</svg>
